<?xml version="1.0" standalone="no"?>
<!DOCTYPE svg PUBLIC "-//W3C//DTD SVG 20010904//EN"
 "http://www.w3.org/TR/2001/REC-SVG-20010904/DTD/svg10.dtd">
<svg version="1.0" xmlns="http://www.w3.org/2000/svg"
 width="666.000000pt" height="414.000000pt" viewBox="0 0 666.000000 414.000000"
 preserveAspectRatio="xMidYMid meet">

<g transform="translate(0.000000,414.000000) scale(0.100000,-0.100000)"
fill="#1d3731" stroke="none">
<path d="M290 4104 c-75 -20 -136 -59 -186 -121 -55 -67 -79 -135 -93 -261
-16 -151 -14 -601 4 -753 84 -720 403 -1395 904 -1912 63 -64 116 -115 119
-113 2 3 -27 45 -65 93 -309 392 -545 891 -657 1389 -56 249 -70 379 -70 676
-1 152 2 280 7 284 4 4 32 11 62 15 157 21 308 163 332 311 4 28 11 40 27 43
11 3 264 4 560 3 467 -3 540 -5 546 -18 4 -8 13 -37 19 -65 35 -149 195 -285
351 -297 l35 -3 8 -100 c61 -809 254 -1526 522 -1950 133 -210 329 -434 500
-573 352 -284 795 -465 1200 -489 97 -5 103 -4 180 27 95 40 337 162 415 211
l55 34 -310 6 c-328 7 -412 16 -592 65 -205 55 -416 154 -582 272 -111 79
-296 253 -383 361 -414 513 -663 1350 -694 2336 -3 105 -10 215 -16 245 -26
136 -125 244 -258 284 -47 14 -162 16 -969 15 -771 0 -925 -3 -971 -15z"/>
<path d="M4417 4109 c-103 -24 -206 -111 -253 -214 -26 -56 -28 -70 -35 -275
-36 -970 -236 -1714 -603 -2248 -39 -57 -77 -111 -84 -121 -11 -15 -2 -26 75
-90 49 -40 127 -97 176 -128 71 -45 90 -53 102 -43 22 19 165 233 224 337 246
434 438 1067 540 1778 45 313 60 467 86 918 l5 97 -97 -1 c-54 -1 -115 -5
-136 -10z"/>
<path d="M5167 4113 c-4 -3 -7 -41 -7 -84 0 -43 -5 -146 -10 -231 -84 -1243
-366 -2255 -819 -2928 -27 -40 -48 -77 -45 -81 6 -10 121 -35 249 -55 202 -31
732 -27 820 6 35 13 269 225 378 342 322 345 541 701 711 1153 72 192 142 489
171 725 33 270 29 668 -10 851 -31 153 -126 257 -267 295 -42 11 -164 14 -609
14 -306 0 -559 -3 -562 -7z m939 -328 c74 -22 141 -79 183 -155 34 -62 36 -70
36 -160 0 -80 -4 -102 -23 -138 -55 -102 -136 -163 -244 -183 -148 -27 -290
47 -359 188 -33 66 -34 196 -2 265 39 85 126 162 213 189 42 13 144 10 196 -6z"/>
<path d="M1560 1490 c-191 -30 -324 -187 -360 -424 -13 -85 -1 -209 25 -272
34 -81 490 -368 780 -489 126 -53 359 -135 384 -135 26 0 87 69 120 136 79
160 64 331 -49 559 -106 212 -260 400 -412 502 -147 98 -337 146 -488 123z"/>
</g>
</svg>
